<svg xmlns="http://www.w3.org/2000/svg" width="32" height="32" viewBox="0 0 32 32">
  <path id="cut" d="M107.2-849.6,96-860.8l-3.76,3.76a4.284,4.284,0,0,1,.44,1.28,7.812,7.812,0,0,1,.12,1.36,6.163,6.163,0,0,1-1.88,4.52A6.163,6.163,0,0,1,86.4-848a6.163,6.163,0,0,1-4.52-1.88A6.163,6.163,0,0,1,80-854.4a6.163,6.163,0,0,1,1.88-4.52,6.163,6.163,0,0,1,4.52-1.88,7.81,7.81,0,0,1,1.36.12,4.284,4.284,0,0,1,1.28.44L92.8-864l-3.76-3.76a4.284,4.284,0,0,1-1.28.44,7.81,7.81,0,0,1-1.36.12,6.163,6.163,0,0,1-4.52-1.88A6.163,6.163,0,0,1,80-873.6a6.163,6.163,0,0,1,1.88-4.52A6.163,6.163,0,0,1,86.4-880a6.163,6.163,0,0,1,4.52,1.88,6.163,6.163,0,0,1,1.88,4.52,7.811,7.811,0,0,1-.12,1.36,4.284,4.284,0,0,1-.44,1.28L112-851.2v1.6Zm-6.4-16-3.2-3.2,9.6-9.6H112v1.6Zm-14.4-4.8a3.081,3.081,0,0,0,2.26-.94,3.081,3.081,0,0,0,.94-2.26,3.081,3.081,0,0,0-.94-2.26,3.081,3.081,0,0,0-2.26-.94,3.081,3.081,0,0,0-2.26.94,3.081,3.081,0,0,0-.94,2.26,3.081,3.081,0,0,0,.94,2.26A3.081,3.081,0,0,0,86.4-870.4Zm9.6,7.2a.767.767,0,0,0,.56-.24.767.767,0,0,0,.24-.56.768.768,0,0,0-.24-.56.768.768,0,0,0-.56-.24.768.768,0,0,0-.56.24.768.768,0,0,0-.24.56.767.767,0,0,0,.24.56A.767.767,0,0,0,96-863.2Zm-9.6,12a3.081,3.081,0,0,0,2.26-.94,3.081,3.081,0,0,0,.94-2.26,3.081,3.081,0,0,0-.94-2.26,3.082,3.082,0,0,0-2.26-.94,3.082,3.082,0,0,0-2.26.94,3.081,3.081,0,0,0-.94,2.26,3.081,3.081,0,0,0,.94,2.26A3.081,3.081,0,0,0,86.4-851.2Z" transform="translate(-80 880)" fill="#c98e4a"/>
</svg>
