<svg xmlns="http://www.w3.org/2000/svg" width="12.4" height="31" viewBox="0 0 12.4 31">
  <path id="man" d="M323.875-849v-10.85H320v-9.3a2.985,2.985,0,0,1,.911-2.189,2.985,2.985,0,0,1,2.189-.911h6.2a2.985,2.985,0,0,1,2.189.911,2.985,2.985,0,0,1,.911,2.189v9.3h-3.875V-849Zm2.325-24.8a2.985,2.985,0,0,1-2.189-.911,2.985,2.985,0,0,1-.911-2.189,2.985,2.985,0,0,1,.911-2.189A2.985,2.985,0,0,1,326.2-880a2.985,2.985,0,0,1,2.189.911,2.985,2.985,0,0,1,.911,2.189,2.985,2.985,0,0,1-.911,2.189A2.985,2.985,0,0,1,326.2-873.8Z" transform="translate(-320 880)" fill="#c98e4a"/>
</svg>
