<svg id="Phone" xmlns="http://www.w3.org/2000/svg" width="22" height="22" viewBox="0 0 22 22">
  <rect id="Rectangle_320" data-name="Rectangle 320" width="22" height="22" fill="none"/>
  <path id="Path_110" data-name="Path 110" d="M12.768,15.714l2.357-2.161a.722.722,0,0,1,.589-.2l.393.2,5.5,2.554c.393.2.393.393.393.786a4.98,4.98,0,0,1-1.571,3.536A5.627,5.627,0,0,1,16.3,22a11.969,11.969,0,0,1-5.5-1.375A25.75,25.75,0,0,1,5.3,16.7a33.458,33.458,0,0,1-2.946-4.321A27.151,27.151,0,0,1,.393,8.054,12.088,12.088,0,0,1,0,4.321,5.162,5.162,0,0,1,1.375,1.375,5.974,5.974,0,0,1,5.107,0a1.021,1.021,0,0,1,.786.393l2.946,5.5a.686.686,0,0,0,.2.393.722.722,0,0,1-.2.589L6.286,9.232a.877.877,0,0,0,0,.982,18.758,18.758,0,0,0,2.357,3.143,19.833,19.833,0,0,0,3.143,2.554C12.179,16.107,12.571,16.107,12.768,15.714Z" fill="#c98e4a"/>
</svg>
