<svg id="Places" xmlns="http://www.w3.org/2000/svg" width="22" height="22" viewBox="0 0 22 22">
  <rect id="Rectangle_305" data-name="Rectangle 305" width="22" height="22" transform="translate(0 0)" fill="none"/>
  <path id="Path_114" data-name="Path 114" d="M9.571,13.04A3.948,3.948,0,0,0,13.636,9.2,4.061,4.061,0,0,0,9.571,5.227,3.948,3.948,0,0,0,5.506,9.065,4.161,4.161,0,0,0,9.571,13.04ZM2.747,2.623a10.046,10.046,0,0,1,13.647,0,8.746,8.746,0,0,1,0,12.885L9.571,21.95,2.747,15.508A8.984,8.984,0,0,1,2.747,2.623Z" transform="translate(0.975 0.05)" fill="#c98e4a" fill-rule="evenodd"/>
</svg>
