<svg xmlns="http://www.w3.org/2000/svg" width="17.304" height="17.304" viewBox="0 0 17.304 17.304">
  <path id="time" d="M91.507-867.281l1.211-1.211-3.2-3.2v-3.98h-1.73V-871ZM88.652-862.7a8.425,8.425,0,0,1-3.374-.681,8.738,8.738,0,0,1-2.747-1.849,8.738,8.738,0,0,1-1.849-2.747A8.425,8.425,0,0,1,80-871.348a8.425,8.425,0,0,1,.681-3.374,8.737,8.737,0,0,1,1.849-2.747,8.736,8.736,0,0,1,2.747-1.849A8.424,8.424,0,0,1,88.652-880a8.424,8.424,0,0,1,3.374.681,8.736,8.736,0,0,1,2.747,1.849,8.737,8.737,0,0,1,1.849,2.747,8.425,8.425,0,0,1,.681,3.374,8.425,8.425,0,0,1-.681,3.374,8.738,8.738,0,0,1-1.849,2.747,8.738,8.738,0,0,1-2.747,1.849A8.425,8.425,0,0,1,88.652-862.7ZM88.652-871.348Zm0,6.922a6.673,6.673,0,0,0,4.9-2.022,6.673,6.673,0,0,0,2.022-4.9,6.673,6.673,0,0,0-2.022-4.9,6.673,6.673,0,0,0-4.9-2.022,6.673,6.673,0,0,0-4.9,2.022,6.673,6.673,0,0,0-2.022,4.9,6.672,6.672,0,0,0,2.022,4.9A6.673,6.673,0,0,0,88.652-864.426Z" transform="translate(-80 880)" fill="#c98e4a"/>
</svg>
